<svg xmlns="http://www.w3.org/2000/svg" width="34" height="38" fill="none" viewBox="0 0 34 38"><ellipse cx="17.919" cy="18.643" fill="#376FFF" rx="16.081" ry="16.089"/><ellipse cx="5.973" cy="32.024" fill="#FFC600" rx="5.973" ry="5.976"/><ellipse cx="31.294" cy="2.707" fill="#00E075" rx="2.706" ry="2.707"/><path fill="#F3F5F8" d="M12.9204 14.5056C14.5309 14.5056 15.9325 15.4047 16.6508 16.7262H25.2414L27.2613 18.543L24.4335 20.7635L23.2216 19.5523L22.0097 20.7635L20.7977 19.5523L19.5858 20.7635H16.6508C15.9325 22.085 14.5309 22.9841 12.9204 22.9841C10.5778 22.9841 8.67868 21.0861 8.67868 18.7449C8.67868 16.4036 10.5778 14.5056 12.9204 14.5056ZM11.5065 17.5336C10.8371 17.5336 10.2946 18.0759 10.2946 18.7449C10.2946 19.4138 10.8371 19.9561 11.5065 19.9561C12.1758 19.9561 12.7184 19.4138 12.7184 18.7449C12.7184 18.0759 12.1758 17.5336 11.5065 17.5336Z"/></svg>