<svg xmlns="http://www.w3.org/2000/svg" width="32" height="24" fill="none" viewBox="0 0 32 24"><rect width="31.648" height="24" fill="#fff" rx="4"/><rect width="31.648" height="24" fill="#0038AB" rx="4"/><path fill="#fff" d="M16 0H28C30.2091 0 32 1.79086 32 4V20C32 22.2091 30.2091 24 28 24H16V0Z"/><path fill="#376FFF" d="M16 0H28C30.2091 0 32 1.79086 32 4V20C32 22.2091 30.2091 24 28 24H16V0Z"/><rect width="10.084" height="1.551" x="18.725" y="13.295" fill="#fff" rx=".776"/><rect width="10.084" height="1.551" x="18.725" y="13.295" fill="#fff" rx=".776"/><rect width="8.533" height="1.551" x="18.725" y="9.416" fill="#fff" rx=".776"/><rect width="8.533" height="1.551" x="18.725" y="9.416" fill="#fff" rx=".776"/><rect width="4.654" height="1.551" x="18.725" y="5.538" fill="#fff" rx=".776"/><rect width="4.654" height="1.551" x="18.725" y="5.538" fill="#fff" rx=".776"/><rect width="8.533" height="1.551" x="18.725" y="17.173" fill="#fff" rx=".776"/><rect width="8.533" height="1.551" x="18.725" y="17.173" fill="#fff" rx=".776"/><rect width="10.084" height="1.551" x="3.251" y="13.295" fill="#fff" rx=".776"/><rect width="10.084" height="1.551" x="3.251" y="13.295" fill="#fff" rx=".776"/><rect width="8.533" height="1.551" x="3.251" y="9.416" fill="#fff" rx=".776"/><rect width="8.533" height="1.551" x="3.251" y="9.416" fill="#fff" rx=".776"/><rect width="4.654" height="1.551" x="3.252" y="5.538" fill="#fff" rx=".776"/><rect width="4.654" height="1.551" x="3.252" y="5.538" fill="#fff" rx=".776"/><rect width="8.533" height="1.551" x="3.251" y="17.173" fill="#fff" rx=".776"/><rect width="8.533" height="1.551" x="3.251" y="17.173" fill="#fff" rx=".776"/></svg>