<svg xmlns="http://www.w3.org/2000/svg" xmlns:loov="http://www.loov.io" width="1050" height="352" style="background-color:#fff"><style><![CDATA[ */ text { text-shadow: -1px -1px 0 rgba(255,255,255,0.5),	1px -1px 0 rgba(255,255,255,0.5), 1px  1px 0 rgba(255,255,255,0.5), -1px  1px 0 rgba(255,255,255,0.5); } /* ]]>*/</style><g><g loov:index="0"><g transform="translate(0.5, 0.5)" loov:index="-1"><polyline style="stroke:#1e1e1eff;fill:transparent;stroke-dasharray:4;stroke-width:1px" points="175 32 175 352"/><polyline style="stroke:#1e1e1eff;fill:transparent;stroke-dasharray:4;stroke-width:1px" points="525 32 525 352"/><polyline style="stroke:#1e1e1eff;fill:transparent;stroke-dasharray:4;stroke-width:1px" points="875 32 875 352"/></g><g transform="translate(0.5, 0.5)"><polyline style="stroke:#000000ff;fill:transparent;stroke-width:1.3px" points="525 48 175 64"/><polyline style="stroke:#000000ff;fill:transparent;stroke-width:1.3px" points="175 64 179.89 65.77"/><polyline style="stroke:#000000ff;fill:transparent;stroke-width:1.3px" points="175 64 179.71 61.79"/><polyline style="stroke:#000000ff;fill:transparent;stroke-width:1.3px" points="175 96 525 112"/><polyline style="stroke:#000000ff;fill:transparent;stroke-width:1.3px" points="525 112 520.29 109.79"/><polyline style="stroke:#000000ff;fill:transparent;stroke-width:1.3px" points="525 112 520.11 113.77"/><polyline style="stroke:#000000ff;fill:transparent;stroke-width:1.3px" points="525 144 875 160"/><polyline style="stroke:#000000ff;fill:transparent;stroke-width:1.3px" points="875 160 870.29 157.79"/><polyline style="stroke:#000000ff;fill:transparent;stroke-width:1.3px" points="875 160 870.11 161.77"/><polyline style="stroke:#000000ff;fill:transparent;stroke-width:1.3px" points="525 192 875 208"/><polyline style="stroke:#000000ff;fill:transparent;stroke-width:1.3px" points="875 208 870.29 205.79"/><polyline style="stroke:#000000ff;fill:transparent;stroke-width:1.3px" points="875 208 870.11 209.77"/><polyline style="stroke:#000000ff;fill:transparent;stroke-width:1.3px" points="875 240 525 256"/><polyline style="stroke:#000000ff;fill:transparent;stroke-width:1.3px" points="525 256 529.89 257.77"/><polyline style="stroke:#000000ff;fill:transparent;stroke-width:1.3px" points="525 256 529.71 253.79"/><polyline style="stroke:#000000ff;fill:transparent;stroke-width:1.3px" points="525 288 175 304"/><polyline style="stroke:#000000ff;fill:transparent;stroke-width:1.3px" points="175 304 179.89 305.77"/><polyline style="stroke:#000000ff;fill:transparent;stroke-width:1.3px" points="175 304 179.71 301.79"/><polyline style="stroke:#000000ff;fill:transparent;stroke-width:1.3px" points="175 336 175 336"/><polyline style="stroke:#000000ff;fill:transparent;stroke-width:1.3px" points="175 336 170.2 334.01"/><polyline style="stroke:#000000ff;fill:transparent;stroke-width:1.3px" points="175 336 170.2 337.99"/></g><g loov:index="1"><g><text alignment-baseline="middle" text-anchor="middle" transform="translate(0.5, 0.5) translate(175.00,16)" style="font-size:16px;fill:#000000ff">SATELLITE</text></g><g><text alignment-baseline="middle" text-anchor="middle" transform="translate(0.5, 0.5) translate(525.00,16)" style="font-size:16px;fill:#000000ff">EXITING NODE</text></g><g><text alignment-baseline="middle" text-anchor="middle" transform="translate(0.5, 0.5) translate(875.00,16)" style="font-size:16px;fill:#000000ff">REPLACEMENT NODE</text></g><g><text alignment-baseline="middle" text-anchor="middle" transform="translate(0.5, 0.5) translate(350.00,49) rotate(-2.62)" style="font-size:12px;fill:#000000ff">TRANSFER PIECE REQUEST</text></g><g><text alignment-baseline="middle" text-anchor="middle" transform="translate(0.5, 0.5) translate(350.00,97) rotate(2.62)" style="font-size:12px;fill:#000000ff">TRANSFER PIECE ORDER LIMIT/PRIVATE KEY</text></g><g><text alignment-baseline="middle" text-anchor="middle" transform="translate(0.5, 0.5) translate(700.00,145) rotate(2.62)" style="font-size:12px;fill:#000000ff">UPLOAD DATA</text></g><g><text alignment-baseline="middle" text-anchor="middle" transform="translate(0.5, 0.5) translate(700.00,193) rotate(2.62)" style="font-size:12px;fill:#000000ff">SEND SIGNED PIECE HASH</text></g><g><text alignment-baseline="middle" text-anchor="middle" transform="translate(0.5, 0.5) translate(700.00,241) rotate(-2.62)" style="font-size:12px;fill:#000000ff">SEND SIGNED PIECE HASH</text></g><g><text alignment-baseline="middle" text-anchor="middle" transform="translate(0.5, 0.5) translate(350.00,289) rotate(-2.62)" style="font-size:12px;fill:#000000ff">SEND ORIGINAL AND REPLACEMENT PIECE HASHES</text></g><g><text alignment-baseline="middle" text-anchor="middle" transform="translate(0.5, 0.5) translate(175.00,329)" style="font-size:12px;fill:#000000ff">VERIFY HASHES</text></g></g></g></g></svg>