<svg xmlns="http://www.w3.org/2000/svg" width="207" height="89" fill="none" viewBox="0 0 207 89"><mask id="mask0" width="81" height="56" x="56" y="18" mask-type="alpha" maskUnits="userSpaceOnUse"><rect width="81" height="56" x="56" y="18" fill="#ABABAB" rx="10"/></mask><g mask="url(#mask0)"><rect width="81" height="56" x="56" y="18" fill="#D3DCE6" rx="10"/><path fill="#EAF0F7" fill-opacity=".3" d="M97 207.706L-7.85281 122.853L97 37.9999L201.853 122.853L97 207.706Z"/><path fill="#EAF0F7" d="M97 -114L201.853 -29.1472L97 55.7056L-7.85283 -29.1472L97 -114Z"/></g><path fill="#FF69A1" d="M39 16C34.5817 16 31 12.4183 31 8C31 3.58172 34.5817 0 39 0C43.4183 0 47 3.58172 47 8C47 12.4183 43.4183 16 39 16Z"/><path fill="#276CFF" fill-rule="evenodd" d="M8.10494 20L4.95911e-05 25.8885L3.09584 35.4164H13.114L16.2098 25.8885L8.10494 20Z" clip-rule="evenodd"/><path fill="#276CFF" fill-rule="evenodd" d="M198.105 28L190 33.8885L193.096 43.4164H203.114L206.21 33.8885L198.105 28Z" clip-rule="evenodd"/><path fill="#00E567" d="M172 78.1127L182.113 68L192.225 78.1127L182.113 88.2254L172 78.1127Z"/><path fill="#FFC600" fill-rule="evenodd" d="M161.889 43L152 57.3548H171.778L161.889 43Z" clip-rule="evenodd"/><path fill="#FFC600" fill-rule="evenodd" d="M20.8889 50L11 64.3548H30.7778L20.8889 50Z" clip-rule="evenodd"/></svg>