<svg xmlns="http://www.w3.org/2000/svg" xmlns:xlink="http://www.w3.org/1999/xlink" width="200" height="200" version="1.1" viewBox="0 0 1293 1226"><title>storj-illustration-distribution-cta</title><desc>Created with Sketch.</desc><defs><path id="path-1" d="M1007.91294,172.930521 C777.338913,-57.6435071 403.50455,-57.6435071 172.930521,172.930521 C-57.6435071,403.50455 -57.6435071,777.338913 172.930521,1007.91294 C403.50455,1238.48697 777.338913,1238.48697 1007.91294,1007.91294 C1238.48697,777.338913 1238.48697,403.50455 1007.91294,172.930521 Z"/></defs><g id="Page-1" fill="none" fill-rule="evenodd" stroke="none" stroke-width="1"><g id="storj-illustration-distribution-cta"><g id="Group-13" transform="translate(31.609576, 45.156538)"><mask id="mask-2" fill="#fff"><use xlink:href="#path-1"/></mask><use id="Oval" fill="#0149FF" xlink:href="#path-1"/><path id="Combined-Shape" fill="#00E567" d="M406.40874,774.43442 L254.162171,926.681437 C214.371668,924.143979 182.883978,891.067302 182.883978,850.63628 C182.883978,808.551267 217.000622,774.434622 259.085635,774.434622 L406.40874,774.43442 Z M483.988029,203.20442 C533.417515,203.20442 573.488029,243.274935 573.488029,292.70442 L573.488029,315.779926 C573.488029,365.209411 533.417515,405.279926 483.988029,405.279926 L421.08374,405.27942 L421.084715,517.855433 C421.084715,567.284918 381.0142,607.355433 331.584715,607.355433 L245.290055,607.355433 C195.86057,607.355433 155.790055,567.284918 155.790055,517.855433 L155.78974,405.27942 L92.8867403,405.279926 C71.5595899,405.279926 51.974734,397.820277 36.5990177,385.367823 C60.7125271,320.115732 96.7404171,258.270279 144.683176,203.196221 L483.988029,203.20442 Z" mask="url(#mask-2)"/><path id="Combined-Shape" fill="#00127F" d="M1007.91294,172.930521 L1014.76099,179.890434 C1238.46391,410.966911 1236.18123,779.644653 1007.91294,1007.91294 C777.338913,1238.48697 403.50455,1238.48697 172.930521,1007.91294 L172.930521,1007.91294 L1007.91294,172.930521 Z" mask="url(#mask-2)"/><path id="Combined-Shape" fill="#0149FF" d="M1007.91294,1007.91294 C986.479736,1029.34615 963.808648,1048.78701 940.129815,1066.23553 L940.121737,1066.22159 C913.291078,1050.76713 895.228361,1021.79912 895.228361,988.612339 L895.227978,876.036326 L832.325046,876.036832 C782.895561,876.036832 742.825046,835.966318 742.825046,786.536832 L742.825046,763.461326 C742.825046,714.031841 782.895561,673.961326 832.325046,673.961326 L1174.93823,673.963016 C1157.57096,796.145673 1101.89586,913.930022 1007.91294,1007.91294 Z M514.220074,774.434622 C556.305087,774.434622 590.421731,808.551267 590.421731,850.63628 C590.421731,892.721293 556.305087,926.837937 514.220074,926.837937 L259.085635,926.837937 C257.431691,926.837937 255.790054,926.785244 254.162311,926.681445 L406.409241,774.434326 L514.220074,774.434622 Z" mask="url(#mask-2)"/></g><rect id="Rectangle" width="197.56" height="197.56" x="774.435" y="0" fill="#FFC600"/><rect id="Rectangle-Copy-32" width="159.177" height="159.177" x="165.95" y="1025.053" fill="#FFC600"/><rect id="Rectangle-Copy-30" width="114.02" height="114.02" x="565.586" y="381.573" fill="#FFC600"/><rect id="Rectangle-Copy-31" width="114.02" height="114.02" x="130.954" y="579.133" fill="#00127F"/><rect id="Rectangle-Copy-29" width="197.56" height="197.56" x="31.61" y="143.372" fill="#FF458B"/><rect id="Rectangle-Copy-35" width="114.02" height="114.02" x="531.718" y="914.42" fill="#FF458B"/><rect id="Rectangle-Copy-33" width="197.56" height="197.56" x="873.779" y="579.133" fill="#00E567"/><rect id="Rectangle-Copy-24" width="114.02" height="114.02" x="543.007" y="0" fill="#C8D3DE"/><rect id="Rectangle-Copy-37" width="114.02" height="114.02" x="0" y="752.985" fill="#C8D3DE"/><rect id="Rectangle-Copy-38" width="114.02" height="114.02" x="873.779" y="382.702" fill="#0149FF"/><rect id="Rectangle-Copy-34" width="159.177" height="159.177" x="794.755" y="1066.823" fill="#C8D3DE"/><rect id="Rectangle-Copy-36" width="159.177" height="159.177" x="1133.429" y="439.147" fill="#C8D3DE"/></g></g></svg>