<svg xmlns="http://www.w3.org/2000/svg" width="92" height="80" fill="none" viewBox="0 0 92 80"><path fill="#FF458B" fill-rule="evenodd" d="M0 0H10V10H0V0Z" clip-rule="evenodd"/><path fill="#0149FF" fill-rule="evenodd" d="M72.2856 8H86.2856V22H72.2856V8Z" clip-rule="evenodd"/><path fill="#0149FF" fill-rule="evenodd" d="M69.5779 24.585H12L20.6367 73.151H20.6554C21.1141 76.9611 29.9528 80.0001 40.789 80.0001C51.6252 80.0001 60.4639 76.9611 60.9226 73.151H60.9412L69.5779 24.585Z" clip-rule="evenodd"/><ellipse cx="40.789" cy="24.274" fill="#00127F" rx="28.789" ry="10.274"/><path fill="#00E567" fill-rule="evenodd" d="M42 34.5384C41.5984 34.5443 41.1947 34.5473 40.789 34.5473C34.5237 34.5473 28.7259 33.8331 24 32.6204V24.4287H42V34.5384Z" clip-rule="evenodd"/><path fill="#FFC600" fill-rule="evenodd" d="M35.1428 3.85742H49.1428V17.8574H35.1428V3.85742Z" clip-rule="evenodd"/><circle cx="73.714" cy="34.286" r="18.286" fill="#D9E0EE"/><path fill="#00127F" d="M74.961 27.7009C74.961 27.0123 74.4028 26.4541 73.7142 26.4541C73.0256 26.4541 72.4675 27.0123 72.4675 27.7009V33.0385H67.1298C66.4412 33.0385 65.8831 33.5967 65.8831 34.2853C65.8831 34.9738 66.4412 35.532 67.1298 35.532H72.4675V40.8697C72.4675 41.5583 73.0256 42.1164 73.7142 42.1164C74.4028 42.1164 74.961 41.5583 74.961 40.8697V35.532H80.2986C80.9872 35.532 81.5454 34.9738 81.5454 34.2853C81.5454 33.5967 80.9872 33.0385 80.2986 33.0385H74.961V27.7009Z"/></svg>