<svg xmlns="http://www.w3.org/2000/svg" width="91" height="108" fill="none" viewBox="0 0 91 108"><path fill="#0149FF" fill-rule="evenodd" d="M27.2515 30.6426L47.1303 50.5213V97.6172H0V30.6426L27.2515 30.6426Z" clip-rule="evenodd"/><path fill="#00127F" fill-rule="evenodd" d="M27.2555 50.5215L27.2555 30.6427L47.1343 50.5215L27.2555 50.5215Z" clip-rule="evenodd"/><path fill="#FFC600" d="M72.2774 16.4141L81.1709 25.3076L90.0644 16.4141L81.1709 7.52063L72.2774 16.4141Z"/><path fill="#00E567" d="M50.1523 26.8998V34.5859H57.8385V26.8998H50.1523Z"/><path fill="#FF458B" d="M30.7741 6.53187L36.209 11.9668L41.6439 6.53187L36.209 1.09694L30.7741 6.53187Z"/><path fill="#0149FF" d="M14 16.933V21.8242H18.8912V16.933H14Z"/><circle cx="47.286" cy="89.301" r="18.286" fill="#D9E0EE"/><path stroke="#00127F" stroke-linecap="round" stroke-linejoin="round" stroke-width="2" d="M41 90.2168L47 96.2168L53 90.2168"/><path stroke="#00127F" stroke-linecap="round" stroke-linejoin="round" stroke-width="2" d="M47 96.2164V81.8164"/></svg>